PathFileType	4	(X/Y/Z)	/Users/itak/Documents/Research/Walk-IL/dataset/trc/00526_00183.trc
DataRate	CameraRate	NumFrames	NumMarkers	Units	OrigDataRate	OrigDataStartFrame	OrigNumFrames
100.000000	100.000000	4	53	mm	100.000000	0	466
Frame#	Time	RPSI			LPSI			L3			STRN			T10			C7			CLAV			RBAK			LBAK			LSHO			LUPA			LAEL			LAOL			LWTS			LFRA			LIFD			LHPS			LHTS			RSHO			RUPA			RAEL			RAOL			RWTS			RWPS			RFRA			RIFD			RHTS			RHPS			RBHD			LFHD			RFHD			LBHD			LHIP			RHIP			RASI			LASI			LKNE			LTHI			LANK			LTIP			LTOE			LMT1			LMT5			LHEE			RKNE			RTHI			RANK			RTIP			RTOE			RMT1			RMT5			RHEE			LWPS			
		X1	Y1	Z1	X2	Y2	Z2	X3	Y3	Z3	X4	Y4	Z4	X5	Y5	Z5	X6	Y6	Z6	X7	Y7	Z7	X8	Y8	Z8	X9	Y9	Z9	X10	Y10	Z10	X11	Y11	Z11	X12	Y12	Z12	X13	Y13	Z13	X14	Y14	Z14	X15	Y15	Z15	X16	Y16	Z16	X17	Y17	Z17	X18	Y18	Z18	X19	Y19	Z19	X20	Y20	Z20	X21	Y21	Z21	X22	Y22	Z22	X23	Y23	Z23	X24	Y24	Z24	X25	Y25	Z25	X26	Y26	Z26	X27	Y27	Z27	X28	Y28	Z28	X29	Y29	Z29	X30	Y30	Z30	X31	Y31	Z31	X32	Y32	Z32	X33	Y33	Z33	X34	Y34	Z34	X35	Y35	Z35	X36	Y36	Z36	X37	Y37	Z37	X38	Y38	Z38	X39	Y39	Z39	X40	Y40	Z40	X41	Y41	Z41	X42	Y42	Z42	X43	Y43	Z43	X44	Y44	Z44	X45	Y45	Z45	X46	Y46	Z46	X47	Y47	Z47	X48	Y48	Z48	X49	Y49	Z49	X50	Y50	Z50	X51	Y51	Z51	X52	Y52	Z52	X53	Y53	Z53	

1	0	-1208.915283203125	972.09228515625	-456.8578186035156	-1140.887451171875	970.3500366210938	-560.1717529296875	-1181.907958984375	1035.445678710938	-516.52001953125	-984.8062744140625	1206.606689453125	-411.5946350097656	-1196.353271484375	1141.2314453125	-520.8204345703125	-1161.286743164062	1372.141845703125	-500.2723388671875	-1019.564514160156	1300.432373046875	-430.8611145019531	-1239.026733398438	1249.8798828125	-443.4383850097656	-1143.069091796875	1317.973999023438	-587.9512939453125	-1025.388916015625	1365.71923828125	-612.3128051757812	-1005.6025390625	1239.255615234375	-670.9555053710938	-976.9366455078125	1030.0185546875	-685.476318359375	-1072.265258789062	1018.318603515625	-656.3641967773438	-904.4774169921875	847.2171020507812	-613.0194091796875	-959.5828247070312	946.0292358398438	-676.1742553710938	-914.2293701171875	681.6145629882812	-582.7071533203125	-943.6078491210938	752.7125244140625	-653.3225708007812	-888.0075073242188	768.09228515625	-623.3695678710938	-1177.77880859375	1369.65576171875	-342.9059753417969	-1217.603515625	1302.117431640625	-298.3919372558594	-1219.798461914062	1033.378173828125	-256.1158752441406	-1251.763916015625	1016.212280273438	-311.6610107421875	-1103.991333007812	836.641357421875	-245.5377960205078	-1190.196044921875	810.4835815429688	-231.6438140869141	-1215.432495117188	979.0361938476562	-247.8641662597656	-1097.578979492188	675.9185180664062	-243.1399078369141	-1095.69921875	742.7178344726562	-218.7058868408203	-1166.295532226562	738.0823364257812	-223.5416259765625	-1177.576416015625	1525.505981445312	-420.8888549804688	-1001.845764160156	1601.699340820312	-481.7423095703125	-1069.44775390625	1596.593627929688	-373.35400390625	-1105.959594726562	1525.696166992188	-563.3723754882812	-952.1583251953125	914.5995483398438	-575.1431274414062	-1187.43017578125	874.2448120117188	-297.93017578125	-1066.131713867188	915.9661865234375	-297.6473388671875	-940.6071166992188	929.5471801757812	-504.3875122070312	-1001.015380859375	473.4888610839844	-577.1975708007812	-973.1158447265625	631.2533569335938	-588.324462890625	-1100.887329101562	51.24866104125977	-617.3380737304688	-1032.7568359375	323.7599792480469	-597.4090576171875	-955.5936279296875	38.73897171020508	-469.6034851074219	-1040.008422851562	42.70120620727539	-479.2979736328125	-1000.007446289062	46.58381271362305	-572.720947265625	-1171.272094726562	49.02757263183594	-584.3430786132812	-1189.598510742188	486.5610961914062	-318.0729370117188	-1172.291381835938	745.16845703125	-277.1800842285156	-1220.642944335938	47.84036254882812	-363.2789611816406	-1186.552001953125	343.5739135742188	-328.7881774902344	-1018.049072265625	44.50703430175781	-327.2839050292969	-1066.43994140625	52.76929473876953	-385.6109619140625	-1121.767456054688	44.2242317199707	-305.6982727050781	-1248.474365234375	39.60188674926758	-428.3611450195312	-968.2667846679688	804.545654296875	-667.6007080078125	
2	0.01	-1208.794067382812	972.0950927734375	-456.7698059082031	-1140.84326171875	970.3355712890625	-560.1442260742188	-1181.81494140625	1035.453369140625	-516.4591064453125	-984.6632080078125	1206.619262695312	-411.5967407226562	-1196.242431640625	1141.24365234375	-520.7321166992188	-1161.246826171875	1372.165405273438	-500.1475524902344	-1019.434448242188	1300.448364257812	-430.8381958007812	-1238.91943359375	1249.864501953125	-443.3592834472656	-1143.02099609375	1317.987670898438	-587.8599243164062	-1025.390380859375	1365.756591796875	-612.2682495117188	-1005.566955566406	1239.30615234375	-670.9287719726562	-977.0161743164062	1029.99755859375	-685.537109375	-1072.213256835938	1018.358764648438	-656.3623046875	-904.4774780273438	847.244140625	-613.1041870117188	-959.5775756835938	946.0715942382812	-676.2225341796875	-909.696044921875	684.4607543945312	-584.2626342773438	-943.5943603515625	752.7413330078125	-653.4354858398438	-887.9874877929688	768.0970458984375	-623.4497680664062	-1177.655151367188	1369.637329101562	-342.8096008300781	-1217.465454101562	1302.080200195312	-298.2643127441406	-1219.571899414062	1033.340942382812	-256.0454406738281	-1251.578491210938	1016.168518066406	-311.5713195800781	-1103.71337890625	836.6268920898438	-245.5887603759766	-1189.931030273438	810.459228515625	-231.5835876464844	-1215.236694335938	979.007568359375	-247.7862548828125	-1097.30859375	675.898681640625	-243.1426849365234	-1095.496826171875	742.7149658203125	-218.6383666992188	-1166.043334960938	738.0426025390625	-223.4656982421875	-1177.460205078125	1525.507934570312	-420.7606201171875	-1001.749084472656	1601.669677734375	-481.6922912597656	-1069.247802734375	1596.544555664062	-373.2559509277344	-1105.873413085938	1525.699340820312	-563.2626342773438	-952.0955810546875	914.640869140625	-575.1414184570312	-1187.348266601562	874.3477783203125	-297.8957824707031	-1065.904663085938	915.9725341796875	-297.6800537109375	-940.5759887695312	929.54541015625	-504.440673828125	-1000.988464355469	473.4751586914062	-577.2108154296875	-973.0736694335938	631.262939453125	-588.3798828125	-1100.877563476562	51.24337768554688	-617.3496704101562	-1032.760864257812	323.7682189941406	-597.3862915039062	-955.5902709960938	38.73421859741211	-469.6094970703125	-1040.004028320312	42.71474075317383	-479.30615234375	-999.9856567382812	46.57248306274414	-572.7200927734375	-1171.282836914062	49.06763458251953	-584.301513671875	-1189.463623046875	486.5740661621094	-318.0432434082031	-1172.042602539062	745.13427734375	-277.2057495117188	-1220.633544921875	47.84956741333008	-363.2842407226562	-1186.4501953125	343.5772399902344	-328.7835998535156	-1018.039855957031	44.49117279052734	-327.2866821289062	-1066.4326171875	52.75667572021484	-385.6103820800781	-1121.736328125	44.20998001098633	-305.720703125	-1248.473022460938	39.62002563476562	-428.3632202148438	-968.1832885742188	804.5873413085938	-667.7149047851562	
3	0.02	-1208.64306640625	972.0975341796875	-456.6600952148438	-1140.786254882812	970.3192138671875	-560.1068115234375	-1181.70361328125	1035.464477539062	-516.3775024414062	-984.4830932617188	1206.635864257812	-411.6045837402344	-1196.107788085938	1141.260009765625	-520.6214599609375	-1161.190063476562	1372.191650390625	-500.0066528320312	-1019.276489257812	1300.46875	-430.8090515136719	-1238.78662109375	1249.844970703125	-443.2570190429688	-1142.9599609375	1318.0029296875	-587.7452392578125	-1025.389038085938	1365.802124023438	-612.2147216796875	-1005.529418945312	1239.369873046875	-670.9016723632812	-977.14599609375	1029.97509765625	-685.6277465820312	-1072.15771484375	1018.412658691406	-656.359619140625	-904.4774780273438	847.2717895507812	-613.2114868164062	-959.5739135742188	946.12890625	-676.2872924804688	-905.4791259765625	687.1160278320312	-585.7635498046875	-943.5700073242188	752.782958984375	-653.5811157226562	-887.9515380859375	768.11572265625	-623.553466796875	-1177.50048828125	1369.615844726562	-342.6881408691406	-1217.291015625	1302.033203125	-298.1050415039062	-1219.290649414062	1033.293701171875	-255.9541320800781	-1251.34228515625	1016.116638183594	-311.4608764648438	-1103.3623046875	836.6089477539062	-245.6558074951172	-1189.598754882812	810.4301147460938	-231.5106811523438	-1214.985717773438	978.9749145507812	-247.6875915527344	-1096.965942382812	675.8734741210938	-243.1522979736328	-1095.225463867188	742.7130126953125	-218.5694427490234	-1165.72265625	737.9891967773438	-223.3722381591797	-1177.315551757812	1525.5107421875	-420.6052551269531	-1001.631774902344	1601.633666992188	-481.6302490234375	-1069.001098632812	1596.486694335938	-373.1370239257812	-1105.769287109375	1525.70654296875	-563.1229858398438	-952.0238037109375	914.6921997070312	-575.13232421875	-1187.198852539062	874.4375	-297.8291931152344	-1065.623901367188	915.978759765625	-297.7206115722656	-940.5248413085938	929.549560546875	-504.5156555175781	-1000.950378417969	473.4581909179688	-577.2261962890625	-973.020751953125	631.27587890625	-588.4448852539062	-1100.865234375	51.23705291748047	-617.3636474609375	-1032.760009765625	323.7836608886719	-597.368408203125	-955.5847778320312	38.72893524169922	-469.616455078125	-1039.997436523438	42.72935104370117	-479.3170471191406	-999.9600219726562	46.55865478515625	-572.7192993164062	-1171.290649414062	49.11095809936523	-584.2622680664062	-1189.296875	486.5875854492188	-318.0057678222656	-1171.72607421875	745.0953369140625	-277.2368469238281	-1220.620971679688	47.85988616943359	-363.2910766601562	-1186.323120117188	343.5800476074219	-328.7779846191406	-1018.0302734375	44.47297668457031	-327.2891540527344	-1066.421997070312	52.7404899597168	-385.6127014160156	-1121.703979492188	44.19634628295898	-305.7431640625	-1248.470458984375	39.64118194580078	-428.3669128417969	-968.084716796875	804.6423950195312	-667.8566284179688	
4	0.03	-1208.468505859375	972.099365234375	-456.5340270996094	-1140.71875	970.3026123046875	-560.0597534179688	-1181.58154296875	1035.478515625	-516.2764892578125	-984.2727661132812	1206.656494140625	-411.6206665039062	-1195.956787109375	1141.280639648438	-520.4932250976562	-1161.115844726562	1372.217895507812	-499.8616333007812	-1019.099609375	1300.492797851562	-430.7750549316406	-1238.634765625	1249.82177734375	-443.1340942382812	-1142.88818359375	1318.017944335938	-587.6127319335938	-1025.384155273438	1365.852905273438	-612.1556396484375	-1005.495544433594	1239.444091796875	-670.8779907226562	-977.3226928710938	1029.956298828125	-685.7470092773438	-1072.105346679688	1018.479064941406	-656.3560180664062	-904.47509765625	847.2967529296875	-613.3377685546875	-959.5736083984375	946.2001342773438	-676.3678588867188	-902.0899658203125	689.2640380859375	-587.0546264648438	-943.5325927734375	752.8359375	-653.7538452148438	-887.8993530273438	768.1513671875	-623.6806640625	-1177.3212890625	1369.593139648438	-342.546630859375	-1217.086181640625	1301.978637695312	-297.921630859375	-1218.96826171875	1033.238647460938	-255.8438873291016	-1251.06396484375	1016.060485839844	-311.3342590332031	-1102.951904296875	836.5882568359375	-245.7372589111328	-1189.213012695312	810.3978881835938	-231.4295349121094	-1214.6875	978.9408569335938	-247.5711364746094	-1096.562866210938	675.8441772460938	-243.1714172363281	-1094.886352539062	742.71240234375	-218.5118865966797	-1165.343505859375	737.924560546875	-223.269287109375	-1177.149169921875	1525.515014648438	-420.4309692382812	-1001.501098632812	1601.593505859375	-481.5594177246094	-1068.720703125	1596.42431640625	-373.0043640136719	-1105.654052734375	1525.719360351562	-562.9586181640625	-951.94580078125	914.7538452148438	-575.1123046875	-1186.975463867188	874.4938354492188	-297.7284851074219	-1065.302490234375	915.9827880859375	-297.7667846679688	-940.44921875	929.5621948242188	-504.6136474609375	-1000.89990234375	473.4397277832031	-577.2427978515625	-972.9597778320312	631.2911987304688	-588.5150146484375	-1100.851318359375	51.23047637939453	-617.3788452148438	-1032.750732421875	323.8058471679688	-597.3583984375	-955.5772094726562	38.72347640991211	-469.6239318847656	-1039.988525390625	42.74338150024414	-479.3304748535156	-999.9321899414062	46.54276275634766	-572.7202758789062	-1171.292358398438	49.15258026123047	-584.232177734375	-1189.106323242188	486.6005859375	-317.9618225097656	-1171.355834960938	745.0546875	-277.2680969238281	-1220.605346679688	47.87075805664062	-363.2994079589844	-1186.176147460938	343.5814514160156	-328.7721557617188	-1018.021423339844	44.45386505126953	-327.2910766601562	-1066.407958984375	52.7210807800293	-385.6192016601562	-1121.673461914062	44.18514633178711	-305.7628479003906	-1248.466186523438	39.66379165649414	-428.3732299804688	-967.9796752929688	804.708740234375	-668.0181274414062	
